<svg xmlns="http://www.w3.org/2000/svg" width="1600" height="2760" viewBox="0 0 1600 2760" role="img" aria-labelledby="title desc">
  <title id="title">Dangerzone Rust OCR module flow</title>
  <desc id="desc">Architecture and call-order diagram for the Rust OCR implementation, showing lib.rs, ocr modules, kreuzberg-tesseract wrappers, raw Tesseract bindings, and PDF rendering.</desc>
  <defs>
    <marker id="arrow" viewBox="0 0 10 10" refX="9" refY="5" markerWidth="8" markerHeight="8" orient="auto-start-reverse">
      <path d="M 0 0 L 10 5 L 0 10 z" fill="#344054"/>
    </marker>
    <marker id="arrow-blue" viewBox="0 0 10 10" refX="9" refY="5" markerWidth="8" markerHeight="8" orient="auto-start-reverse">
      <path d="M 0 0 L 10 5 L 0 10 z" fill="#1d4ed8"/>
    </marker>
    <style>
      .bg { fill: #f6f7f9; }
      .lane { fill: #ffffff; stroke: #d0d5dd; stroke-width: 1.5; }
      .lane-title { font: 700 18px Arial, sans-serif; fill: #101828; }
      .lane-subtitle { font: 400 13px Arial, sans-serif; fill: #667085; }
      .box { fill: #ffffff; stroke: #667085; stroke-width: 1.5; rx: 8; }
      .box-entry { fill: #e8f1ff; stroke: #1d4ed8; }
      .box-ocr { fill: #eef8f2; stroke: #17803d; }
      .box-backend { fill: #fff4e6; stroke: #b45309; }
      .box-native { fill: #f3e8ff; stroke: #7e22ce; }
      .box-pdf { fill: #fff1f2; stroke: #be123c; }
      .box-data { fill: #f2f4f7; stroke: #475467; }
      .label { font: 700 15px Arial, sans-serif; fill: #101828; }
      .small { font: 400 12.5px Arial, sans-serif; fill: #344054; }
      .tiny { font: 400 11.5px Arial, sans-serif; fill: #475467; }
      .num { font: 700 13px Arial, sans-serif; fill: #ffffff; }
      .badge { fill: #344054; }
      .arrow { fill: none; stroke: #344054; stroke-width: 2; marker-end: url(#arrow); }
      .arrow-blue { fill: none; stroke: #1d4ed8; stroke-width: 2.2; marker-end: url(#arrow-blue); }
      .dashed { stroke-dasharray: 7 6; }
      .note { fill: #fffbeb; stroke: #d97706; stroke-width: 1.2; rx: 8; }
      .note-text { font: 400 12.5px Arial, sans-serif; fill: #78350f; }
      .module-panel { fill: #ffffff; stroke: #d0d5dd; stroke-width: 1.5; rx: 10; }
      .module-title { font: 700 17px Arial, sans-serif; fill: #101828; }
      .page-title { font: 800 24px Arial, sans-serif; fill: #101828; }
      .detail-card { fill: #ffffff; stroke: #d0d5dd; stroke-width: 1.3; rx: 8; }
      .detail-heading { font: 700 14px Arial, sans-serif; fill: #101828; }
      .detail-body { font: 400 12.5px Arial, sans-serif; fill: #344054; }
      .detail-code { font: 400 11.5px Arial, sans-serif; fill: #667085; }
      .new-pill { fill: #dcfce7; stroke: #15803d; stroke-width: 1; rx: 8; }
      .new-text { font: 700 10.5px Arial, sans-serif; fill: #166534; }
    </style>
  </defs>

  <rect class="bg" x="0" y="0" width="1600" height="2760"/>
  <text x="60" y="52" style="font: 800 30px Arial, sans-serif; fill: #101828;">OCR Module Structure and Internal Call Order</text>
  <text x="60" y="78" style="font: 400 15px Arial, sans-serif; fill: #475467;">Reviewer-focused Rust flow: page pixels -> backend trait -> OCR words -> invisible PDF text layer</text>

  <rect class="lane" x="40" y="115" width="300" height="930" rx="10"/>
  <text class="lane-title" x="64" y="148">src/lib.rs</text>
  <text class="lane-subtitle" x="64" y="170">document conversion and PDF writing</text>

  <rect class="lane" x="370" y="115" width="270" height="930" rx="10"/>
  <text class="lane-title" x="394" y="148">src/ocr/mod.rs</text>
  <text class="lane-subtitle" x="394" y="170">backend trait and OCR page model</text>

  <rect class="lane" x="670" y="115" width="330" height="930" rx="10"/>
  <text class="lane-title" x="694" y="148">kreuzberg_tesseract/mod.rs</text>
  <text class="lane-subtitle" x="694" y="170">Linux Tesseract backend</text>

  <rect class="lane" x="1030" y="115" width="250" height="930" rx="10"/>
  <text class="lane-title" x="1054" y="148">helpers.rs + bindings.rs</text>
  <text class="lane-subtitle" x="1054" y="170">iterator extraction and FFI calls</text>

  <rect class="lane" x="1310" y="115" width="250" height="930" rx="10"/>
  <text class="lane-title" x="1334" y="148">dependencies</text>
  <text class="lane-subtitle" x="1334" y="170">not part of internal call order</text>

  <!-- Entry pipeline -->
  <g transform="translate(70 210)">
    <rect class="box box-entry" width="240" height="64"/>
    <circle class="badge" cx="22" cy="22" r="13"/><text class="num" x="18" y="27">1</text>
    <text class="label" x="44" y="24">convert_document()</text>
    <text class="small" x="44" y="44">starts document conversion</text>
    <text class="small" x="44" y="60">and chooses the OCR path</text>
  </g>
  <g transform="translate(70 315)">
    <rect class="box box-entry" width="240" height="64"/>
    <circle class="badge" cx="22" cy="22" r="13"/><text class="num" x="18" y="27">2</text>
    <text class="label" x="44" y="24">convert_doc_to_pixels()</text>
    <text class="small" x="44" y="44">renders the document into</text>
    <text class="small" x="44" y="60">raw RGB page images</text>
  </g>
  <g transform="translate(70 420)">
    <rect class="box box-entry" width="240" height="64"/>
    <circle class="badge" cx="22" cy="22" r="13"/><text class="num" x="18" y="27">3</text>
    <text class="label" x="44" y="24">parse_pixel_data()</text>
    <text class="small" x="44" y="44">decodes page count, sizes,</text>
    <text class="small" x="44" y="60">and pixels into PageData</text>
  </g>
  <g transform="translate(70 525)">
    <rect class="box box-entry" width="240" height="76"/>
    <rect class="new-pill" x="190" y="10" width="40" height="18"/>
    <text class="new-text" x="199" y="23">NEW</text>
    <circle class="badge" cx="22" cy="22" r="13"/><text class="num" x="18" y="27">4</text>
    <text class="label" x="44" y="24">KreuzbergTesseractOcr</text>
    <text class="small" x="44" y="46">selects the Linux OCR</text>
    <text class="small" x="44" y="62">backend behind a trait</text>
  </g>

  <!-- OCR core -->
  <g transform="translate(400 525)">
    <rect class="box box-ocr" width="210" height="76"/>
    <rect class="new-pill" x="160" y="10" width="40" height="18"/>
    <text class="new-text" x="169" y="23">NEW</text>
    <circle class="badge" cx="22" cy="22" r="13"/><text class="num" x="18" y="27">5</text>
    <text class="label" x="44" y="24">OcrBackend::ocr_pages()</text>
    <text class="small" x="44" y="46">runs the selected backend</text>
    <text class="small" x="44" y="62">once for every page</text>
  </g>

  <!-- Backend method sequence -->
  <g transform="translate(700 195)">
    <rect class="box box-backend" width="270" height="78"/>
    <rect class="new-pill" x="220" y="10" width="40" height="18"/>
    <text class="new-text" x="229" y="23">NEW</text>
    <circle class="badge" cx="22" cy="22" r="13"/><text class="num" x="18" y="27">6</text>
    <text class="label" x="44" y="24">ocr_page(pixels,w,h)</text>
    <text class="small" x="44" y="46">turns one page image into</text>
    <text class="small" x="44" y="62">an OcrPage of words</text>
  </g>
  <g transform="translate(700 330)">
    <rect class="box box-backend" width="270" height="84"/>
    <rect class="new-pill" x="220" y="10" width="40" height="18"/>
    <text class="new-text" x="229" y="23">NEW</text>
    <circle class="badge" cx="22" cy="22" r="13"/><text class="num" x="18" y="27">7</text>
    <text class="label" x="44" y="24">tessdata_dir()</text>
    <text class="small" x="44" y="46">finds the Tesseract</text>
    <text class="small" x="44" y="62">language-data directory</text>
    <text class="small" x="44" y="78">from known locations</text>
  </g>
  <g transform="translate(700 465)">
    <rect class="box box-backend" width="270" height="66"/>
    <rect class="new-pill" x="220" y="10" width="40" height="18"/>
    <text class="new-text" x="229" y="23">NEW</text>
    <circle class="badge" cx="22" cy="22" r="13"/><text class="num" x="18" y="27">8</text>
    <text class="label" x="44" y="24">as_tessdata_dir()</text>
    <text class="small" x="44" y="44">accepts a tessdata folder</text>
    <text class="small" x="44" y="60">or its parent directory</text>
  </g>
  <g transform="translate(700 600)">
    <rect class="box box-backend" width="270" height="94"/>
    <circle class="badge" cx="22" cy="22" r="13"/><text class="num" x="15" y="27">9</text>
    <text class="label" x="44" y="24">backend internals</text>
    <text class="small" x="44" y="46">hands page pixels to the</text>
    <text class="small" x="44" y="62">OCR dependency and asks</text>
    <text class="small" x="44" y="78">it to recognize words</text>
  </g>

  <!-- Helpers and bindings -->
  <g transform="translate(1055 195)">
    <rect class="box box-native" width="200" height="78"/>
    <rect class="new-pill" x="150" y="10" width="40" height="18"/>
    <text class="new-text" x="159" y="23">NEW</text>
    <circle class="badge" cx="22" cy="22" r="13"/><text class="num" x="15" y="27">10</text>
    <text class="label" x="48" y="24">extract_ocr_words()</text>
    <text class="small" x="48" y="46">reads the OCR iterator</text>
    <text class="small" x="48" y="62">into Rust word objects</text>
  </g>
  <g transform="translate(1055 330)">
    <rect class="box box-native" width="200" height="96"/>
    <rect class="new-pill" x="150" y="10" width="40" height="18"/>
    <text class="new-text" x="159" y="23">NEW</text>
    <circle class="badge" cx="22" cy="22" r="13"/><text class="num" x="15" y="27">11</text>
    <text class="label" x="48" y="24">loop per word</text>
    <text class="small" x="48" y="46">walks each recognized word,</text>
    <text class="small" x="48" y="62">keeping its text, box,</text>
    <text class="small" x="48" y="78">and page-wide line id</text>
  </g>
  <g transform="translate(1055 475)">
    <rect class="box box-native" width="200" height="80"/>
    <rect class="new-pill" x="150" y="10" width="40" height="18"/>
    <text class="new-text" x="159" y="23">NEW</text>
    <circle class="badge" cx="22" cy="22" r="13"/><text class="num" x="15" y="27">12</text>
    <text class="label" x="48" y="24">utf8_text()</text>
    <text class="small" x="48" y="46">copies text out of</text>
    <text class="small" x="48" y="62">Tesseract-owned memory</text>
  </g>
  <g transform="translate(1055 600)">
    <rect class="box box-native" width="200" height="80"/>
    <rect class="new-pill" x="150" y="10" width="40" height="18"/>
    <text class="new-text" x="159" y="23">NEW</text>
    <circle class="badge" cx="22" cy="22" r="13"/><text class="num" x="15" y="27">13</text>
    <text class="label" x="48" y="24">bounding_box()</text>
    <text class="small" x="48" y="46">converts the word rectangle</text>
    <text class="small" x="48" y="62">into the Rust box model</text>
  </g>
  <g transform="translate(1055 730)">
    <rect class="box box-data" width="200" height="84"/>
    <circle class="badge" cx="22" cy="22" r="13"/><text class="num" x="15" y="27">14</text>
    <text class="label" x="48" y="24">Vec&lt;OcrWord&gt;</text>
    <text class="small" x="48" y="46">one entry per word:</text>
    <text class="small" x="48" y="62">text, box, and line_id</text>
  </g>

  <!-- External components -->
  <g transform="translate(1335 265)">
    <rect class="box box-native" width="200" height="92"/>
    <text class="label" x="20" y="26">kreuzberg-tesseract</text>
    <text class="small" x="20" y="49">Cargo dependency with</text>
    <text class="small" x="20" y="65">static-linking enabled</text>
    <text class="small" x="20" y="81">for Linux OCR</text>
  </g>
  <g transform="translate(1335 465)">
    <rect class="box box-native" width="200" height="96"/>
    <text class="label" x="20" y="26">bindings.rs extern block</text>
    <text class="small" x="20" y="49">your local FFI boundary</text>
    <text class="small" x="20" y="65">for native Tesseract</text>
    <text class="small" x="20" y="81">iterator functions</text>
  </g>
  <g transform="translate(1335 665)">
    <rect class="box box-native" width="200" height="78"/>
    <text class="label" x="20" y="26">Tesseract + pdf.ttf</text>
    <text class="small" x="20" y="49">native OCR engine plus</text>
    <text class="small" x="20" y="65">glyphless OCR font asset</text>
  </g>

  <!-- PDF rendering path -->
  <g transform="translate(400 875)">
    <rect class="box box-data" width="210" height="76"/>
    <rect class="new-pill" x="160" y="10" width="40" height="18"/>
    <text class="new-text" x="169" y="23">NEW</text>
    <circle class="badge" cx="22" cy="22" r="13"/><text class="num" x="15" y="27">15</text>
    <text class="label" x="48" y="24">OcrPage::new()</text>
    <text class="small" x="48" y="46">groups the page's words</text>
    <text class="small" x="48" y="62">as one OCR result</text>
  </g>
  <g transform="translate(70 875)">
    <rect class="box box-pdf" width="240" height="76"/>
    <rect class="new-pill" x="190" y="10" width="40" height="18"/>
    <text class="new-text" x="199" y="23">NEW</text>
    <circle class="badge" cx="22" cy="22" r="13"/><text class="num" x="15" y="27">16</text>
    <text class="label" x="48" y="24">pixels_to_pdf_with_ocr()</text>
    <text class="small" x="48" y="46">starts PDF writing with</text>
    <text class="small" x="48" y="62">the OCR results attached</text>
  </g>
  <g transform="translate(70 995)">
    <rect class="box box-pdf" width="240" height="76"/>
    <rect class="new-pill" x="190" y="10" width="40" height="18"/>
    <text class="new-text" x="199" y="23">NEW</text>
    <circle class="badge" cx="22" cy="22" r="13"/><text class="num" x="15" y="27">17</text>
    <text class="label" x="48" y="24">write_pages_to_pdf_file()</text>
    <text class="small" x="48" y="46">checks input, opens output,</text>
    <text class="small" x="48" y="62">and delegates PDF bytes</text>
  </g>
  <g transform="translate(400 995)">
    <rect class="box box-pdf" width="210" height="76"/>
    <circle class="badge" cx="22" cy="22" r="13"/><text class="num" x="15" y="27">18</text>
    <text class="label" x="48" y="24">write_pdf()</text>
    <text class="small" x="48" y="46">builds image pages and</text>
    <text class="small" x="48" y="62">embeds the OCR font</text>
  </g>
  <g transform="translate(700 995)">
    <rect class="box box-pdf" width="270" height="76"/>
    <rect class="new-pill" x="220" y="10" width="40" height="18"/>
    <text class="new-text" x="229" y="23">NEW</text>
    <circle class="badge" cx="22" cy="22" r="13"/><text class="num" x="15" y="27">19</text>
    <text class="label" x="48" y="24">append_ocr_text_layer()</text>
    <text class="small" x="48" y="46">turns OCR words into hidden,</text>
    <text class="small" x="48" y="62">searchable PDF text</text>
  </g>
  <g transform="translate(1055 995)">
    <rect class="box box-data" width="200" height="76"/>
    <circle class="badge" cx="22" cy="22" r="13"/><text class="num" x="15" y="27">20</text>
    <text class="label" x="48" y="24">final PDF bytes</text>
    <text class="small" x="48" y="46">safe raster PDF plus</text>
    <text class="small" x="48" y="62">selectable OCR text</text>
  </g>

  <!-- Arrows: main flow -->
  <path class="arrow-blue" d="M190 274 L190 315"/>
  <path class="arrow-blue" d="M190 379 L190 420"/>
  <path class="arrow-blue" d="M190 484 L190 525"/>
  <path class="arrow-blue" d="M310 563 C345 563 365 563 400 563"/>
  <path class="arrow-blue" d="M610 563 C650 563 660 228 700 228"/>
  <path class="arrow-blue" d="M835 273 L835 330"/>
  <path class="arrow-blue" d="M835 414 L835 465"/>
  <path class="arrow-blue" d="M835 531 L835 600"/>
  <path class="arrow-blue" d="M970 647 C1010 647 1015 234 1055 234"/>
  <path class="arrow-blue" d="M1155 273 L1155 330"/>
  <path class="arrow-blue" d="M1155 426 L1155 475"/>
  <path class="arrow-blue" d="M1155 555 L1155 600"/>
  <path class="arrow-blue" d="M1155 680 L1155 730"/>
  <path class="arrow-blue" d="M1055 772 C885 772 765 913 610 913"/>
  <path class="arrow-blue" d="M400 913 C350 913 340 913 310 913"/>
  <path class="arrow-blue" d="M190 951 L190 995"/>
  <path class="arrow-blue" d="M310 1033 C350 1033 365 1033 400 1033"/>
  <path class="arrow-blue" d="M610 1033 C650 1033 665 1033 700 1033"/>
  <path class="arrow-blue" d="M970 1033 C1010 1033 1015 1033 1055 1033"/>

  <!-- Arrows: external communication -->
  <path class="arrow dashed" d="M970 647 C1110 647 1195 311 1335 311"/>
  <path class="arrow dashed" d="M1255 515 C1285 515 1305 513 1335 513"/>
  <path class="arrow dashed" d="M970 372 C1120 372 1205 704 1335 704"/>

  <!-- Module structure -->
  <rect class="module-panel" x="60" y="1090" width="1480" height="140"/>
  <text class="module-title" x="84" y="1122">OCR Module Structure</text>
  <text class="tiny" x="84" y="1143">This is the static Rust design behind the call flow above: shared OCR data types and a generic backend trait live in src/ocr/mod.rs.</text>

  <g transform="translate(105 1162)">
    <rect class="box box-ocr" width="250" height="50"/>
    <text class="label" x="18" y="21">src/ocr/mod.rs</text>
    <text class="small" x="18" y="39">OcrBackend + OcrPage::text_lines()</text>
  </g>
  <g transform="translate(435 1162)">
    <rect class="box box-backend" width="245" height="50"/>
    <text class="label" x="18" y="21">kreuzberg_tesseract</text>
    <text class="small" x="18" y="39">implements OcrBackend for Linux</text>
  </g>
  <g transform="translate(760 1162)">
    <rect class="box box-native" width="245" height="50"/>
    <text class="label" x="18" y="21">helpers + bindings</text>
    <text class="small" x="18" y="39">backend internals for Tesseract FFI</text>
  </g>
  <g transform="translate(1085 1162)">
    <rect class="box box-pdf" width="245" height="50"/>
    <text class="label" x="18" y="21">pdf_renderer</text>
    <text class="small" x="18" y="39">uses OcrPage::text_lines()</text>
  </g>
  <g transform="translate(1365 1162)">
    <rect class="box box-data" width="130" height="50"/>
    <text class="label" x="18" y="21">future backends</text>
    <text class="small" x="18" y="39">Apple / Windows dirs</text>
  </g>

  <path class="arrow" d="M435 1187 C405 1187 385 1187 355 1187"/>
  <path class="arrow" d="M680 1187 C710 1187 730 1187 760 1187"/>
  <path class="arrow" d="M355 1202 C635 1250 845 1250 1085 1202"/>
  <path class="arrow dashed" d="M1365 1187 C1020 1128 675 1128 355 1187"/>

  <!-- Legend and notes -->
  <rect class="note" x="60" y="1260" width="1480" height="44"/>
  <rect class="new-pill" x="80" y="1273" width="40" height="18"/>
  <text class="new-text" x="89" y="1286">NEW</text>
  <text class="note-text" x="132" y="1286">marks methods introduced by this OCR PR. Dashed arrows show dependency boundaries or planned backend options; solid numbered arrows show Rust call order.</text>

  <!-- Detail page 1 -->
  <text class="page-title" x="60" y="1370">Detailed Step Notes - Steps 1 to 10</text>
  <text class="tiny" x="60" y="1394">These notes explain what each numbered step does in reviewer-friendly language and point to the relevant source file.</text>

  <g transform="translate(60 1420)">
    <rect class="detail-card" width="700" height="108"/>
    <circle class="badge" cx="24" cy="24" r="14"/><text class="num" x="20" y="29">1</text>
    <text class="detail-heading" x="50" y="24">convert_document()</text>
    <text class="detail-body" x="50" y="46">Top-level document conversion entry point.</text>
    <text class="detail-body" x="50" y="64">It renders the input into page pixels, then chooses</text>
    <text class="detail-body" x="50" y="82">integrated OCR or the plain/platform fallback path.</text>
    <text class="detail-code" x="50" y="100">Reference: src/lib.rs:293</text>
  </g>
  <g transform="translate(830 1420)">
    <rect class="detail-card" width="700" height="108"/>
    <circle class="badge" cx="24" cy="24" r="14"/><text class="num" x="20" y="29">2</text>
    <text class="detail-heading" x="50" y="24">convert_doc_to_pixels()</text>
    <text class="detail-body" x="50" y="46">Runs the container-based renderer and collects stdout.</text>
    <text class="detail-body" x="50" y="64">The result is not PDF yet; it is a byte stream with</text>
    <text class="detail-body" x="50" y="82">page dimensions and raw RGB pixels for every page.</text>
    <text class="detail-code" x="50" y="100">Reference: src/lib.rs:160</text>
  </g>

  <g transform="translate(60 1545)">
    <rect class="detail-card" width="700" height="108"/>
    <circle class="badge" cx="24" cy="24" r="14"/><text class="num" x="20" y="29">3</text>
    <text class="detail-heading" x="50" y="24">parse_pixel_data()</text>
    <text class="detail-body" x="50" y="46">Turns the byte stream into structured PageData values.</text>
    <text class="detail-body" x="50" y="64">Each page gets width, height, and pixels so later code</text>
    <text class="detail-body" x="50" y="82">does not need to parse binary offsets again.</text>
    <text class="detail-code" x="50" y="100">Reference: src/lib.rs:64</text>
  </g>
  <g transform="translate(830 1545)">
    <rect class="detail-card" width="700" height="108"/>
    <rect class="new-pill" x="610" y="14" width="64" height="18"/>
    <text class="new-text" x="629" y="27">NEW</text>
    <circle class="badge" cx="24" cy="24" r="14"/><text class="num" x="20" y="29">4</text>
    <text class="detail-heading" x="50" y="24">KreuzbergTesseractOcr</text>
    <text class="detail-body" x="50" y="46">Concrete Linux OCR backend used for integrated OCR.</text>
    <text class="detail-body" x="50" y="64">It is backed by the kreuzberg-tesseract dependency and</text>
    <text class="detail-body" x="50" y="82">is called through the generic OcrBackend trait.</text>
    <text class="detail-code" x="50" y="100">Reference: Cargo.toml:24, src/ocr/kreuzberg_tesseract/mod.rs:13</text>
  </g>

  <g transform="translate(60 1670)">
    <rect class="detail-card" width="700" height="108"/>
    <rect class="new-pill" x="610" y="14" width="64" height="18"/>
    <text class="new-text" x="629" y="27">NEW</text>
    <circle class="badge" cx="24" cy="24" r="14"/><text class="num" x="20" y="29">5</text>
    <text class="detail-heading" x="50" y="24">OcrBackend::ocr_pages()</text>
    <text class="detail-body" x="50" y="46">Default trait method that loops over rendered pages.</text>
    <text class="detail-body" x="50" y="64">For each PageData it calls the backend's single-page</text>
    <text class="detail-body" x="50" y="82">OCR method and collects OcrPage values.</text>
    <text class="detail-code" x="50" y="100">Reference: src/ocr/mod.rs:145, src/ocr/mod.rs:152</text>
  </g>
  <g transform="translate(830 1670)">
    <rect class="detail-card" width="700" height="108"/>
    <rect class="new-pill" x="610" y="14" width="64" height="18"/>
    <text class="new-text" x="629" y="27">NEW</text>
    <circle class="badge" cx="24" cy="24" r="14"/><text class="num" x="20" y="29">6</text>
    <text class="detail-heading" x="50" y="24">ocr_page(pixels, width, height)</text>
    <text class="detail-body" x="50" y="46">Backend-specific implementation for one page.</text>
    <text class="detail-body" x="50" y="64">It adapts raw RGB pixels for Tesseract, runs recognition,</text>
    <text class="detail-body" x="50" y="82">and returns an OcrPage for that source page.</text>
    <text class="detail-code" x="50" y="100">Reference: src/ocr/kreuzberg_tesseract/mod.rs:50</text>
  </g>

  <g transform="translate(60 1795)">
    <rect class="detail-card" width="700" height="108"/>
    <rect class="new-pill" x="610" y="14" width="64" height="18"/>
    <text class="new-text" x="629" y="27">NEW</text>
    <circle class="badge" cx="24" cy="24" r="14"/><text class="num" x="20" y="29">7</text>
    <text class="detail-heading" x="50" y="24">tessdata_dir()</text>
    <text class="detail-body" x="50" y="46">Finds the trained language data Tesseract needs.</text>
    <text class="detail-body" x="50" y="64">It checks an explicit environment variable first, then</text>
    <text class="detail-body" x="50" y="82">bundled, system, and user-cache locations.</text>
    <text class="detail-code" x="50" y="100">Reference: src/ocr/kreuzberg_tesseract/mod.rs:20</text>
  </g>
  <g transform="translate(830 1795)">
    <rect class="detail-card" width="700" height="108"/>
    <rect class="new-pill" x="610" y="14" width="64" height="18"/>
    <text class="new-text" x="629" y="27">NEW</text>
    <circle class="badge" cx="24" cy="24" r="14"/><text class="num" x="20" y="29">8</text>
    <text class="detail-heading" x="50" y="24">as_tessdata_dir()</text>
    <text class="detail-body" x="50" y="46">Normalizes paths for Tesseract data lookup.</text>
    <text class="detail-body" x="50" y="64">If the path is already a tessdata directory, it is used;</text>
    <text class="detail-body" x="50" y="82">otherwise the method appends a tessdata component.</text>
    <text class="detail-code" x="50" y="100">Reference: src/ocr/kreuzberg_tesseract/mod.rs:40</text>
  </g>

  <g transform="translate(60 1920)">
    <rect class="detail-card" width="700" height="108"/>
    <circle class="badge" cx="24" cy="24" r="14"/><text class="num" x="20" y="29">9</text>
    <text class="detail-heading" x="50" y="24">backend internals</text>
    <text class="detail-body" x="50" y="46">This is where the backend uses the external OCR crate.</text>
    <text class="detail-body" x="50" y="64">The diagram groups these calls so the reviewer can focus</text>
    <text class="detail-body" x="50" y="82">on your module boundaries.</text>
    <text class="detail-code" x="50" y="100">Reference: src/ocr/kreuzberg_tesseract/mod.rs:53-99</text>
  </g>
  <g transform="translate(830 1920)">
    <rect class="detail-card" width="700" height="108"/>
    <rect class="new-pill" x="610" y="14" width="64" height="18"/>
    <text class="new-text" x="629" y="27">NEW</text>
    <circle class="badge" cx="24" cy="24" r="14"/><text class="num" x="17" y="29">10</text>
    <text class="detail-heading" x="50" y="24">extract_ocr_words()</text>
    <text class="detail-body" x="50" y="46">Converts Tesseract's result iterator into Rust words.</text>
    <text class="detail-body" x="50" y="64">Raw native iterator handling stays contained inside the</text>
    <text class="detail-body" x="50" y="82">Tesseract backend module.</text>
    <text class="detail-code" x="50" y="100">Reference: src/ocr/kreuzberg_tesseract/helpers.rs:15</text>
  </g>

  <!-- Detail page 2 -->
  <text class="page-title" x="60" y="2090">Detailed Step Notes - Steps 11 to 20</text>
  <text class="tiny" x="60" y="2114">The second half follows the extracted OCR words into the page model and then into the final PDF text layer.</text>

  <g transform="translate(60 2140)">
    <rect class="detail-card" width="700" height="108"/>
    <rect class="new-pill" x="610" y="14" width="64" height="18"/>
    <text class="new-text" x="629" y="27">NEW</text>
    <circle class="badge" cx="24" cy="24" r="14"/><text class="num" x="17" y="29">11</text>
    <text class="detail-heading" x="50" y="24">loop per word</text>
    <text class="detail-body" x="50" y="46">Walks Tesseract's recognized words one by one.</text>
    <text class="detail-body" x="50" y="64">The loop records line_id, skips empty or malformed results,</text>
    <text class="detail-body" x="50" y="82">and stops when Tesseract has no next word.</text>
    <text class="detail-code" x="50" y="100">Reference: src/ocr/kreuzberg_tesseract/helpers.rs:32-100</text>
  </g>
  <g transform="translate(830 2140)">
    <rect class="detail-card" width="700" height="108"/>
    <rect class="new-pill" x="610" y="14" width="64" height="18"/>
    <text class="new-text" x="629" y="27">NEW</text>
    <circle class="badge" cx="24" cy="24" r="14"/><text class="num" x="17" y="29">12</text>
    <text class="detail-heading" x="50" y="24">utf8_text()</text>
    <text class="detail-body" x="50" y="46">Copies recognized UTF-8 text into a Rust String.</text>
    <text class="detail-body" x="50" y="64">After copying, it calls the matching native delete</text>
    <text class="detail-body" x="50" y="82">function so the C allocation is released.</text>
    <text class="detail-code" x="50" y="100">Reference: src/ocr/kreuzberg_tesseract/helpers.rs:131</text>
  </g>

  <g transform="translate(60 2265)">
    <rect class="detail-card" width="700" height="108"/>
    <rect class="new-pill" x="610" y="14" width="64" height="18"/>
    <text class="new-text" x="629" y="27">NEW</text>
    <circle class="badge" cx="24" cy="24" r="14"/><text class="num" x="17" y="29">13</text>
    <text class="detail-heading" x="50" y="24">bounding_box()</text>
    <text class="detail-body" x="50" y="46">Reads the word rectangle from Tesseract.</text>
    <text class="detail-body" x="50" y="64">It translates left, top, right, bottom coordinates into</text>
    <text class="detail-body" x="50" y="82">the local OcrVBox shape: x, y, width, and height.</text>
    <text class="detail-code" x="50" y="100">Reference: src/ocr/kreuzberg_tesseract/helpers.rs:107</text>
  </g>
  <g transform="translate(830 2265)">
    <rect class="detail-card" width="700" height="108"/>
    <circle class="badge" cx="24" cy="24" r="14"/><text class="num" x="17" y="29">14</text>
    <text class="detail-heading" x="50" y="24">Vec&lt;OcrWord&gt;</text>
    <text class="detail-body" x="50" y="46">The backend returns one Rust value per recognized word.</text>
    <text class="detail-body" x="50" y="64">Each OcrWord carries text, a pixel-space box, and the</text>
    <text class="detail-body" x="50" y="82">line_id used later to group words into text lines.</text>
    <text class="detail-code" x="50" y="100">Reference: src/ocr/mod.rs:31</text>
  </g>

  <g transform="translate(60 2390)">
    <rect class="detail-card" width="700" height="108"/>
    <rect class="new-pill" x="610" y="14" width="64" height="18"/>
    <text class="new-text" x="629" y="27">NEW</text>
    <circle class="badge" cx="24" cy="24" r="14"/><text class="num" x="17" y="29">15</text>
    <text class="detail-heading" x="50" y="24">OcrPage::new()</text>
    <text class="detail-body" x="50" y="46">Wraps all words from one source page into one OCR result.</text>
    <text class="detail-body" x="50" y="64">OcrPage owns the words and also provides text_lines()</text>
    <text class="detail-body" x="50" y="82">for line-aware consumers.</text>
    <text class="detail-code" x="50" y="100">Reference: src/ocr/mod.rs:62, src/ocr/mod.rs:68</text>
  </g>
  <g transform="translate(830 2390)">
    <rect class="detail-card" width="700" height="108"/>
    <rect class="new-pill" x="610" y="14" width="64" height="18"/>
    <text class="new-text" x="629" y="27">NEW</text>
    <circle class="badge" cx="24" cy="24" r="14"/><text class="num" x="17" y="29">16</text>
    <text class="detail-heading" x="50" y="24">pixels_to_pdf_with_ocr()</text>
    <text class="detail-body" x="50" y="46">Private helper used after integrated OCR completes.</text>
    <text class="detail-body" x="50" y="64">It keeps the rendered pages and passes matching OCR pages</text>
    <text class="detail-body" x="50" y="82">into the shared PDF file writer.</text>
    <text class="detail-code" x="50" y="100">Reference: src/lib.rs:254</text>
  </g>

  <g transform="translate(60 2515)">
    <rect class="detail-card" width="700" height="108"/>
    <rect class="new-pill" x="610" y="14" width="64" height="18"/>
    <text class="new-text" x="629" y="27">NEW</text>
    <circle class="badge" cx="24" cy="24" r="14"/><text class="num" x="17" y="29">17</text>
    <text class="detail-heading" x="50" y="24">write_pages_to_pdf_file()</text>
    <text class="detail-body" x="50" y="46">Shared file-writing helper for OCR and non-OCR output.</text>
    <text class="detail-body" x="50" y="64">It checks that pages exist, opens the destination file,</text>
    <text class="detail-body" x="50" y="82">and delegates PDF construction to write_pdf().</text>
    <text class="detail-code" x="50" y="100">Reference: src/lib.rs:275</text>
  </g>
  <g transform="translate(830 2515)">
    <rect class="detail-card" width="700" height="108"/>
    <circle class="badge" cx="24" cy="24" r="14"/><text class="num" x="17" y="29">18</text>
    <text class="detail-heading" x="50" y="24">write_pdf()</text>
    <text class="detail-body" x="50" y="46">Builds the PDF structure: catalog, pages, images,</text>
    <text class="detail-body" x="50" y="64">compressed pixel streams, content streams, and the</text>
    <text class="detail-body" x="50" y="82">glyphless OCR font from assets/pdf.ttf.</text>
    <text class="detail-code" x="50" y="100">Reference: src/lib.rs:328, src/ocr/pdf_renderer.rs:8, assets/pdf.ttf</text>
  </g>

  <g transform="translate(60 2640)">
    <rect class="detail-card" width="700" height="108"/>
    <rect class="new-pill" x="610" y="14" width="64" height="18"/>
    <text class="new-text" x="629" y="27">NEW</text>
    <circle class="badge" cx="24" cy="24" r="14"/><text class="num" x="17" y="29">19</text>
    <text class="detail-heading" x="50" y="24">append_ocr_text_layer()</text>
    <text class="detail-body" x="50" y="46">Adds invisible text commands to the page content stream.</text>
    <text class="detail-body" x="50" y="64">It converts OCR pixels into PDF points, groups words with</text>
    <text class="detail-body" x="50" y="82">OcrPage::text_lines(), and writes searchable hidden text.</text>
    <text class="detail-code" x="50" y="100">Reference: src/ocr/pdf_renderer.rs:130</text>
  </g>
  <g transform="translate(830 2640)">
    <rect class="detail-card" width="700" height="108"/>
    <circle class="badge" cx="24" cy="24" r="14"/><text class="num" x="17" y="29">20</text>
    <text class="detail-heading" x="50" y="24">final PDF bytes</text>
    <text class="detail-body" x="50" y="46">The resulting file is still a safe raster PDF visually.</text>
    <text class="detail-body" x="50" y="64">It also contains an invisible text layer so users can</text>
    <text class="detail-body" x="50" y="82">select and search recognized text.</text>
    <text class="detail-code" x="50" y="100">Reference: src/lib.rs:289, src/lib.rs:470</text>
  </g>
</svg>
